<svg width="250" height="250" viewBox="0 0 250 250" fill="none" xmlns="http://www.w3.org/2000/svg">
<g clip-path="url(#clip0_1_2)">
<circle cx="125" cy="125" r="125" fill="#E5B25D"/>
<path d="M159.093 135.694C159.455 139.954 159.566 144.263 159.426 148.622C158.767 153.007 157.844 157.367 156.657 161.702C154.945 165.91 152.976 170.016 150.75 174.019C148.029 177.741 145.076 181.286 141.892 184.653C138.281 187.594 134.482 190.291 130.495 192.743C126.185 194.647 121.746 196.251 117.179 197.556C112.422 198.221 107.608 198.551 102.738 198.544C97.8325 197.846 92.9511 196.797 88.0934 195.397C83.3669 193.299 78.7478 190.858 74.2361 188.076C70.0216 184.636 65.9956 180.887 62.1579 176.828C58.7721 172.203 55.6471 167.324 52.7829 162.192C50.5025 156.626 48.5412 150.884 46.8989 144.966C45.9392 138.784 45.3379 132.519 45.0951 126.171C45.5919 119.756 46.4641 113.362 47.7115 106.987C49.708 100.759 52.072 94.6572 54.8033 88.6825C58.2426 83.0668 62.016 77.6818 66.1236 72.5272C70.8478 67.9302 75.8487 63.6568 81.1263 59.707C86.8831 56.4849 92.8377 53.6618 98.9901 51.2378C105.446 49.6705 112.003 48.5542 118.663 47.889C125.421 48.1575 132.174 48.901 138.922 50.1197C145.549 52.2897 152.059 54.9281 158.453 58.0347C164.504 62.0473 170.33 66.4898 175.932 71.3621C180.982 77.0326 185.71 83.0641 190.115 89.4567C193.79 96.4818 197.061 103.772 199.929 111.328C201.928 119.302 203.467 127.424 204.547 135.694C204.67 144.131 204.305 152.584 203.452 161.054C201.616 169.419 199.295 177.662 196.488 185.784C192.738 193.525 188.536 201.01 183.884 208.238C178.389 214.825 172.51 221.032 166.247 226.859C159.302 231.816 152.066 236.292 144.541 240.284C136.545 243.228 128.376 245.615 120.033 247.445C111.47 248.11 102.866 248.177 94.2205 247.647C85.6295 245.908 77.1361 243.568 68.7403 240.628C60.679 236.513 52.8533 231.834 45.263 226.592C38.2745 220.287 31.6486 213.493 25.3852 206.21C19.9605 198.051 15.0058 189.512 10.5213 180.594C7.06504 171.048 4.1592 161.26 1.8038 151.231C0.605178 140.873 0.00391043 130.431 0 119.906C1.20991 109.38 3.02655 98.9404 5.44993 88.5854C9.06671 78.5703 13.2603 68.8087 18.0307 59.3005C23.8956 50.4602 30.2689 42.0304 37.1505 34.011C44.9533 26.9542 53.1609 20.4428 61.7731 14.4768C71.0681 9.7141 80.6347 5.60037 90.473 2.1356C100.704 0.0437248 111.052 -1.33481 121.517 -2C132.05 -1.20702 142.534 0.319189 152.968 2.57864C163.133 6.28926 173.08 10.706 182.808 15.8287C191.938 22.3012 200.69 29.4061 209.066 37.1432C216.542 46.0383 223.502 55.4489 229.947 65.375C235.241 76.1868 239.911 87.3607 243.955 98.8966C246.667 110.981 248.682 123.247 250 135.694" stroke="black" stroke-width="5"/>
</g>
<defs>
<clipPath id="clip0_1_2">
<rect width="250" height="250" fill="white"/>
</clipPath>
</defs>
</svg>
